PathFileType	4	(X/Y/Z)	C:\Users\°ÂÌØÂü\Desktop\20210112\bx_n_5_501-Unnamed.trc
DataRate	CameraRate	NumFrames	NumMarkers	Units	OrigDataRate	OrigDataStartFrame	OrigNumFrames
50.00	50.00	       6	0	mm	50.00	65	       517
Frame#	Time	
		

65	1.280	-666.75372	130.92578	1848.63916	-717.53760	294.91333	1524.98303	-569.86658	1.13029	802.31982	-575.90863	228.13069	791.96899	-682.03961	273.59369	742.66193				-714.25177	253.85362	642.51160	-666.01154	208.15691	533.54181	-760.22131	259.43701	503.05695	-517.04608	-72.88886	143.70967	-547.30933	-26.29962	164.09613	-793.03223	40.81606	175.93855	-718.24719	72.78227	215.32565	-599.11609	28.54592	166.37988	-674.12451	55.04998	157.18884	-712.40820	153.25276	216.24054	-796.07355	178.30847	184.61014	-767.52094	227.13966	205.76920	-591.80823	217.43523	173.98438	-882.51593	296.25482	144.79489	-555.75342	256.01270	164.48804	-660.43530	297.48410	158.21881	-623.90991	305.93219	159.27893	-527.94458	304.49655	146.67267	-676.39081	-65.07318	1537.33240	-782.83008	98.62804	1052.85779	-749.77026	-42.43617	489.99478	-757.51404	-17.71883	208.35010	-875.99792	-78.69180	141.55168	-642.51990	-66.91805	870.72986	-693.55768	-31.15785	615.38312	-703.89081	-28.53556	568.54395	-675.31519	171.09966	157.99986	-606.12598	-71.25449	159.35260	-648.52051	-65.60889	163.48282	-665.70422	-58.27148	756.39215	-590.83984	113.55280	1355.57690	-578.74738	1.27948	1055.22375	-589.77454	249.98480	1065.07642	-671.92822	289.91760	871.51373	-679.78986	146.89601	576.42889	-657.42096	20.43485	517.80957	-718.30139	249.89711	576.35706	-684.35815	78.49401	571.93188	
66	1.300	-666.36151	130.99188	1848.56580	-717.50769	294.92468	1524.98425	-569.75720	1.02530	802.48785	-575.91980	228.21773	792.07562	-682.14972	273.68460	742.67102				-714.37830	253.87910	642.53149	-666.00946	208.24451	533.47253	-760.11096	259.43964	503.05557	-517.16052	-72.96725	143.62186	-547.30298	-26.24611	164.15665	-793.07697	40.81382	175.86786	-718.24768	72.86240	215.28180	-599.10236	28.55319	166.48409	-674.37396	55.10655	156.86998	-712.42963	153.32007	216.25259	-795.87268	178.42525	184.43567	-767.59399	227.13806	205.70604	-591.86383	217.54462	173.85439	-882.42224	296.21420	144.80258	-555.75568	255.94748	164.26512	-660.32678	297.55542	158.26341	-623.98303	306.09174	159.24867	-528.03845	304.74155	146.94852	-676.11255	-64.94356	1537.34448	-782.80145	98.62771	1052.93323	-749.77026	-42.43617	489.99478	-757.33838	-17.58596	208.26788	-875.99792	-78.69180	141.55168	-642.54559	-66.77736	870.76184	-693.67346	-31.34492	614.95605	-703.74860	-28.67359	568.72803	-675.31519	171.09966	157.99986	-606.17639	-71.27381	159.25685	-648.45154	-65.54998	163.69559	-665.68829	-58.24414	756.45044	-590.74921	113.74001	1355.69788	-578.74738	1.27948	1055.22375	-589.90985	249.88467	1064.91699	-671.92822	289.91760	871.51373	-679.91815	146.84105	576.54205	-657.26959	20.44180	517.95032	-718.20233	249.86035	576.23120	-684.09955	78.63187	572.40540	
67	1.320	-665.80280	131.67143	1848.48450	-717.46399	294.80481	1525.08643	-569.73291	1.08694	802.40527	-575.90863	228.13069	791.96899	-682.14996	273.84735	742.65649				-714.36481	254.08533	642.61035	-666.01166	208.19193	533.57007	-760.12030	259.30347	502.93878	-517.10760	-72.77716	143.44475	-547.30298	-26.24611	164.15665	-793.01367	40.87111	175.68481	-718.24768	72.86240	215.28180	-599.05200	28.31881	166.57228	-674.35364	54.99989	156.80557	-712.26605	153.39243	216.28999	-795.72821	178.40288	184.45518	-767.55243	227.07895	205.69696	-591.86597	217.47523	173.79866	-882.44165	296.28186	144.84575	-555.75659	256.00961	164.28500	-660.42242	297.57083	158.30324	-623.89130	305.81235	159.40221	-528.12537	304.77161	146.83104	-675.88147	-64.85063	1537.40820	-782.69678	98.83987	1052.93530	-749.74072	-42.32423	489.85242	-757.30219	-17.58838	208.09520	-875.95648	-78.79716	141.44162	-642.45508	-66.49612	870.77997	-693.47223	-31.11217	615.15259	-703.93884	-28.41450	568.50348	-675.31519	171.09966	157.99986	-606.11029	-71.36491	159.32687	-648.52692	-65.43606	163.58131	-665.75592	-58.22792	756.42401	-590.66833	113.66414	1355.58215	-578.74738	1.27948	1055.22375	-589.78143	250.12283	1064.99561	-671.92822	289.91760	871.51373	-679.78986	146.89601	576.42889	-657.15918	20.50658	517.97064	-718.13257	249.97023	576.22992	-683.99829	78.87179	572.31934	
68	1.340	-665.05505	131.50162	1848.46948	-717.07025	294.90948	1525.07593	-569.72388	1.04851	802.32477	-575.82196	228.23773	791.98413	-682.14972	273.68460	742.67102				-714.07385	253.81256	642.49097	-666.03436	208.21271	533.53363	-760.02655	259.35446	503.03162	-517.04608	-72.88886	143.70967	-547.30933	-26.29962	164.09613	-792.91797	40.81812	175.84650	-718.09631	72.76933	215.37183	-598.88922	28.48038	166.42076	-674.35364	54.99989	156.80557	-711.90448	153.46236	216.10867	-795.80402	178.38275	184.43475	-767.48938	226.99890	205.83966	-591.88635	217.58937	173.97112	-882.45203	296.14447	144.88071	-555.74872	255.86557	164.09082	-660.43530	297.48410	158.21881	-623.80231	305.80267	159.30388	-528.03589	304.71042	146.77905	-675.58386	-64.80460	1537.36353	-782.95703	98.98660	1053.10156	-749.61499	-42.45188	490.06714	-757.55280	-17.74070	208.27893	-875.95648	-78.79716	141.44162	-642.54559	-66.77736	870.76184	-693.46570	-31.20783	615.03204	-703.74860	-28.67359	568.72803	-675.31519	171.09966	157.99986	-606.10858	-71.27795	159.32375	-648.53101	-65.62205	163.81828	-665.65881	-58.10283	756.52490	-590.33209	113.77541	1355.62109	-578.74738	1.27948	1055.22375	-589.78143	250.12283	1064.99561	-671.83832	289.91635	871.40265	-679.54749	147.04723	576.39807	-657.03754	20.35729	518.13397	-717.85492	249.75093	575.93964	-684.22260	78.56548	572.14819	
69	1.360	-664.75842	131.54091	1848.56360	-716.76727	294.87762	1525.11377	-569.73291	1.08694	802.40527	-575.80914	228.09236	791.95703	-681.94177	273.91949	742.67731				-714.11023	254.09334	642.71997	-665.97485	208.19221	533.47681	-759.76849	259.27167	503.12314	-517.28461	-72.88547	143.54651	-547.30298	-26.24611	164.15665	-793.03223	40.81606	175.93855	-718.24719	72.78227	215.32565	-598.96600	28.52279	166.45044	-674.22839	55.08479	156.93066	-712.26605	153.39243	216.28999	-795.74744	178.32648	184.45193	-767.43823	227.00053	205.79944	-591.72388	217.29936	173.72736	-882.55463	296.16583	144.67320	-555.76477	255.80222	164.27019	-660.37927	297.46588	158.43893	-623.95764	305.98181	159.30353	-528.04419	304.62152	146.80469	-675.15710	-64.65705	1537.36121	-782.80884	99.02601	1052.92261	-749.69940	-42.31994	489.90637	-757.51404	-17.71883	208.35010	-875.99792	-78.69180	141.55168	-642.40417	-66.85762	870.97516	-693.55768	-31.15785	615.38312	-703.72839	-28.59479	568.79156	-675.31519	171.09966	157.99986	-606.12598	-71.25449	159.35260	-648.53101	-65.62205	163.81828	-665.58911	-58.01533	756.64893	-589.89478	114.08861	1355.74646	-578.74738	1.27948	1055.22375	-589.77307	250.15710	1064.90930	-671.92822	289.91760	871.51373	-679.91815	146.84105	576.54205	-656.97430	20.40525	518.05450	-717.88007	249.87224	576.21783	-683.72766	78.99124	572.24225	
70	1.380	-663.62939	131.45352	1848.50647	-716.34393	295.01044	1525.16345	-569.76996	1.07575	802.48102	-575.72101	228.09032	791.90234	-682.05188	274.01035	742.68640				-714.19885	254.14865	642.58282	-665.79346	208.26700	533.50366	-759.80280	259.27551	503.01321	-517.40320	-72.61182	143.74399	-547.34924	-26.18706	164.11954	-793.00171	40.76129	175.89464	-718.24768	72.86240	215.28180	-598.97034	28.46467	166.28981	-674.18756	55.08683	156.83957	-712.31311	153.30515	216.14322	-795.80402	178.38275	184.43475	-767.57367	227.07356	205.86740	-591.86597	217.64111	173.78954	-882.51776	296.06790	144.63388	-555.57251	255.86757	164.51807	-660.42242	297.57083	158.30324	-623.87372	305.88132	159.30368	-528.05811	304.51282	146.88345	-674.88556	-64.62497	1537.43164	-782.73151	98.94926	1053.02930	-749.56299	-42.34247	490.03839	-757.40894	-17.59655	208.19688	-875.97473	-78.84007	141.37231	-642.44916	-66.38940	870.97229	-693.55768	-31.15785	615.38312	-703.76917	-28.48896	568.75897	-675.31519	171.09966	157.99986	-606.05817	-71.25862	159.41949	-648.45154	-65.54998	163.69559	-665.69360	-58.24848	756.77185	-589.83423	114.23958	1355.65271	-578.81299	1.32673	1055.29956	-589.78143	250.12283	1064.99561	-671.92822	289.91760	871.51373	-679.78986	146.89601	576.42889	-656.97430	20.40525	518.05450	-717.87640	249.88744	576.10205	-683.93604	78.82825	572.22101	
